<svg xmlns="http://www.w3.org/2000/svg" viewBox="0 0 512 512" xml:space="preserve" enable-background="new 0 0 512 512"><path d="M483.664 292.643c-2.735-4.798-8.84-6.471-13.64-3.737l-58.042 33.078v-60.189l67.945-38.727c4.798-2.735 6.471-8.842 3.735-13.64-2.733-4.797-8.841-6.47-13.64-3.736l-58.041 33.082V178.59l63.781-36.35c4.799-2.735 6.472-8.841 3.737-13.64s-8.84-6.472-13.64-3.737l-63.88 36.406-52.798-30.094 57.239-32.623c4.798-2.735 6.471-8.842 3.735-13.64-2.734-4.799-8.844-6.47-13.64-3.736l-67.529 38.489-52.797-30.093 57.751-32.915c4.798-2.735 6.471-8.841 3.735-13.64-2.733-4.797-8.84-6.473-13.64-3.736l-68.042 38.78-68.037-38.78c-4.795-2.733-10.905-1.063-13.64 3.736-2.735 4.798-1.063 10.905 3.735 13.64l57.746 32.914-52.79 30.087-68.03-38.778a10.039 10.039 0 0 0-4.962-1.312c-5.522 0-9.995 4.477-9.995 10 0 3.8 2.122 7.105 5.245 8.797l57.547 32.802-52.815 30.101-63.876-36.396c-4.798-2.735-10.905-1.062-13.639 3.738-2.734 4.799-1.061 10.905 3.738 13.639l63.79 36.347v60.176L41.97 205.69c-4.796-2.733-10.904-1.062-13.64 3.736-2.735 4.798-1.063 10.905 3.735 13.64l67.944 38.727v60.189l-58.041-33.078c-4.798-2.734-10.904-1.06-13.64 3.737-2.734 4.798-1.062 10.904 3.737 13.64l67.943 38.721v77.98c0 5.522 4.478 10 10 10s10-4.478 10-10V356.4l52.993 30.201v77.381c0 5.522 4.478 10 10 10s10-4.478 10-10v-65.983L246 428.2v72.787c0 5.522 4.478 10 10 10s10-4.478 10-10V428.2l52.991-30.2v65.408c0 5.522 4.478 10 10 10s10-4.478 10-10v-76.806l52.991-30.2v65.987c0 5.522 4.478 10 10 10s10-4.478 10-10v-77.385l67.944-38.722c4.8-2.735 6.472-8.841 3.738-13.639zm-227.665-48.177-52.801-30.086 52.805-30.096 52.793 30.092-52.797 30.09zm-62.989-12.872L246 261.787v60.194l-52.99-30.203v-60.184zM266 261.787l52.991-30.2v60.19L266 321.981v-60.194zm72.991-41.599 52.991-30.2v60.185l-52.991 30.204v-60.189zm42.795-47.409-52.794 30.088-52.794-30.093 52.792-30.089 52.796 30.094zm-125.789-71.697 52.797 30.094-52.791 30.088-52.796-30.094 52.79-30.088zm-72.985 41.597 52.797 30.094-52.8 30.094-52.807-30.089 52.81-30.099zm-62.995 47.314 52.993 30.195v60.19l-52.993-30.205v-60.18zm0 143.389v-60.187L173.01 303.4v60.184l-52.993-30.202zm72.993 41.599v-60.182L246 345.002v60.178l-52.99-30.199zM266 405.18v-60.178l52.991-30.204v60.182L266 405.18zm72.991-41.598v-60.184l52.991-30.204v60.187l-52.991 30.201z" fill="#78c2fd" class="fill-283954"></path><path d="M464.497 113.698 276.093 6.312c-12.396-7.066-27.792-7.065-40.184 0-16.886 9.624-165.991 94.603-188.418 107.393a40.592 40.592 0 0 0-20.472 35.242v214.079c0 14.534 7.848 28.04 20.484 35.25l188.393 107.378c12.537 7.168 27.876 7.051 40.195.007L464.5 398.273c12.633-7.207 20.48-20.713 20.48-35.247V148.947a40.601 40.601 0 0 0-20.483-35.249zm.483 249.328a20.626 20.626 0 0 1-10.388 17.874L266.176 488.292a20.56 20.56 0 0 1-20.363-.007L57.41 380.902c-6.409-3.657-10.391-10.507-10.391-17.876V148.947c0-7.287 3.88-14.153 10.388-17.874L245.813 23.687c6.281-3.582 14.088-3.583 20.375 0l188.407 107.388a20.587 20.587 0 0 1 10.385 17.872v214.079z" fill="#78c2fd" class="fill-5596fb"></path></svg>