<svg fill="none" viewBox="0 0 28 28" xmlns="http://www.w3.org/2000/svg"><path d="M9.102 15.815c.09-.178.232-.334.419-.442l3.396-1.96V7.5a1.083 1.083 0 1 1 2.166 0V14c0 .388-.203.73-.51.921-.063.06-.133.115-.211.16l-3.758 2.169a1.08 1.08 0 0 1-1.502-1.435Z" fill="#78c2fd" class="fill-000000"></path><path clip-rule="evenodd" d="M14 27c7.18 0 13-5.82 13-13S21.18 1 14 1 1 6.82 1 14s5.82 13 13 13Zm0-2.167c5.984 0 10.833-4.85 10.833-10.833 0-5.983-4.85-10.833-10.833-10.833C8.016 3.167 3.167 8.017 3.167 14c0 5.983 4.85 10.833 10.833 10.833Z" fill="#78c2fd" fill-rule="evenodd" class="fill-000000"></path></svg>