<svg viewBox="0 0 64 64" xmlns="http://www.w3.org/2000/svg"><path d="M32 16a1 1 0 0 0 1-1V6a1 1 0 0 0-2 0v9a1 1 0 0 0 1 1ZM17.15 21.564a1 1 0 0 0 1.415-1.414l-4.243-4.242a1 1 0 1 0-1.414 1.414ZM13 35a1 1 0 0 0-1-1H3a1 1 0 0 0 0 2h9a1 1 0 0 0 1-1ZM61 34h-9a1 1 0 0 0 0 2h9a1 1 0 0 0 0-2ZM46.143 21.857a.997.997 0 0 0 .707-.293l4.242-4.242a1 1 0 0 0-1.414-1.414l-4.242 4.242a1 1 0 0 0 .707 1.707ZM19.306 43h25.388a15 15 0 1 0-25.388 0ZM54 45H10a1 1 0 0 0 0 2h44a1 1 0 0 0 0-2ZM46 57H18a1 1 0 0 0 0 2h28a1 1 0 0 0 0-2ZM50 51H14a1 1 0 0 0 0 2h36a1 1 0 0 0 0-2Z" fill="#78c2fd" class="fill-000000"></path></svg>